<?xml version="1.0" encoding="utf-8"?><svg viewBox="0 0 24 24" xmlns="http://www.w3.org/2000/svg" xmlns:xlink="http://www.w3.org/1999/xlink"><style>:root>svg{display:none}:root>svg:target{display:block}</style><svg fill="none" viewBox="0 0 18 18" id="arrow-right" xmlns="http://www.w3.org/2000/svg">
    <path d="M3.75 9h10.5M9.75 13.5l4.5-4.5M9.75 4.5l4.5 4.5" stroke="#FFAB00" stroke-width="1.125" stroke-linecap="round" stroke-linejoin="round"/>
</svg><svg fill="none" viewBox="0 0 20 20" id="close" xmlns="http://www.w3.org/2000/svg">
    <path d="M15.442 5.442a.625.625 0 1 0-.884-.884L10 9.116 5.442 4.558a.625.625 0 1 0-.884.884L9.116 10l-4.558 4.558a.625.625 0 1 0 .884.884L10 10.884l4.558 4.558a.625.625 0 1 0 .884-.884L10.884 10l4.558-4.558Z" fill="#343839"/>
</svg><svg fill="none" viewBox="0 0 24 24" id="ticket-percent" xmlns="http://www.w3.org/2000/svg">
    <path d="m21.018 14.836-.245.708.245-.708Zm0-5.672.245.71-.245-.71ZM2.982 14.836l.245.708-.245-.708Zm0-5.672-.245.71.245-.71Zm12.548.366a.75.75 0 0 0-1.06-1.06l1.06 1.06Zm-7.06 4.94a.75.75 0 1 0 1.06 1.06l-1.06-1.06ZM6 20.25A3.25 3.25 0 0 1 2.75 17h-1.5A4.75 4.75 0 0 0 6 21.75v-1.5ZM21.25 17A3.25 3.25 0 0 1 18 20.25v1.5A4.75 4.75 0 0 0 22.75 17h-1.5ZM18 3.75A3.25 3.25 0 0 1 21.25 7h1.5A4.75 4.75 0 0 0 18 2.25v1.5ZM6 2.25A4.75 4.75 0 0 0 1.25 7h1.5A3.25 3.25 0 0 1 6 3.75v-1.5Zm15.264 11.877A2.251 2.251 0 0 1 19.75 12h-1.5a3.751 3.751 0 0 0 2.523 3.544l.49-1.417ZM19.75 12c0-.984.631-1.822 1.514-2.127l-.491-1.417A3.751 3.751 0 0 0 18.25 12h1.5Zm-15.5 0c0 .984-.632 1.822-1.513 2.127l.49 1.417A3.751 3.751 0 0 0 5.75 12h-1.5ZM2.737 9.873A2.251 2.251 0 0 1 4.25 12h1.5a3.751 3.751 0 0 0-2.523-3.544l-.49 1.417ZM22.75 8V7h-1.5v1h1.5Zm-1.5 8v1h1.5v-1h-1.5Zm-20 0v1h1.5v-1h-1.5Zm1.5-8V7h-1.5v1h1.5ZM18 20.25H6v1.5h12v-1.5Zm0-18H6v1.5h12v-1.5ZM2.737 14.127c-.68.235-1.487.87-1.487 1.873h1.5c0-.056.02-.13.102-.219a.92.92 0 0 1 .375-.237l-.49-1.417Zm18.527-4.254c.678-.235 1.486-.87 1.486-1.873h-1.5c0 .056-.02.13-.102.219a.921.921 0 0 1-.375.237l.49 1.417ZM3.227 8.456a.921.921 0 0 1-.375-.237C2.77 8.129 2.75 8.056 2.75 8h-1.5c0 1.002.808 1.638 1.487 1.873l.49-1.417Zm17.546 7.088a.92.92 0 0 1 .375.237c.081.09.102.163.102.219h1.5c0-1.002-.808-1.638-1.486-1.873l-.491 1.417ZM9.25 9a.25.25 0 0 1-.25.25v1.5A1.75 1.75 0 0 0 10.75 9h-1.5ZM9 9.25A.25.25 0 0 1 8.75 9h-1.5c0 .966.784 1.75 1.75 1.75v-1.5ZM8.75 9A.25.25 0 0 1 9 8.75v-1.5A1.75 1.75 0 0 0 7.25 9h1.5ZM9 8.75a.25.25 0 0 1 .25.25h1.5A1.75 1.75 0 0 0 9 7.25v1.5ZM15.25 15a.25.25 0 0 1-.25.25v1.5A1.75 1.75 0 0 0 16.75 15h-1.5Zm-.25.25a.25.25 0 0 1-.25-.25h-1.5c0 .966.784 1.75 1.75 1.75v-1.5Zm-.25-.25a.25.25 0 0 1 .25-.25v-1.5A1.75 1.75 0 0 0 13.25 15h1.5Zm.25-.25a.25.25 0 0 1 .25.25h1.5A1.75 1.75 0 0 0 15 13.25v1.5Zm-.53-6.28-6 6 1.06 1.06 6-6-1.06-1.06Z" fill="#FEFEFE"/>
</svg></svg>